<?xml version="1.0" encoding="UTF-8"?>
<svg version="1.1" xmlns="http://www.w3.org/2000/svg" width="512" height="512">
<path d="M0 0 C0.59312988 0.41942871 1.18625977 0.83885742 1.79736328 1.27099609 C12.69839717 9.00373558 22.47068176 17.64229982 32 27 C32.61625244 27.60231445 33.23250488 28.20462891 33.86743164 28.82519531 C39.00963859 33.89940727 43.51046371 39.34215558 48 45 C49.22783203 46.51980469 49.22783203 46.51980469 50.48046875 48.0703125 C56.77602348 55.95627164 62.0774032 64.19923565 67 73 C67.4345752 73.76812012 67.86915039 74.53624023 68.31689453 75.32763672 C83.4658026 102.32659651 92.40647653 131.28324858 96 162 C96.13148438 163.10730469 96.26296875 164.21460938 96.3984375 165.35546875 C101.35942442 217.17766996 87.57123999 272.64093053 57 315 C56.37085693 315.88969482 56.37085693 315.88969482 55.72900391 316.79736328 C47.99626208 327.69840047 39.35769051 337.47066794 30 347 C29.39841064 347.61552734 28.79682129 348.23105469 28.17700195 348.86523438 C23.10299438 354.00729868 17.67192291 358.52732675 12 363 C10.6078125 364.10021484 10.6078125 364.10021484 9.1875 365.22265625 C-38.38275875 401.86985286 -98.58603783 417.66697676 -158.06689453 410.40673828 C-215.78536596 402.40282839 -269.93630341 373.19466436 -306 327 C-306.81210937 325.99324219 -307.62421875 324.98648437 -308.4609375 323.94921875 C-314.76775423 316.05991567 -320.07280678 307.80898195 -325 299 C-325.4345752 298.23187988 -325.86915039 297.46375977 -326.31689453 296.67236328 C-341.4658026 269.67340349 -350.40647653 240.71675142 -354 210 C-354.13148438 208.89269531 -354.26296875 207.78539062 -354.3984375 206.64453125 C-359.35942442 154.82233004 -345.57123999 99.35906947 -315 57 C-314.58057129 56.40687012 -314.16114258 55.81374023 -313.72900391 55.20263672 C-305.99626442 44.30160283 -297.35770018 34.52931824 -288 25 C-287.39768555 24.38374756 -286.79537109 23.76749512 -286.17480469 23.13256836 C-281.10059273 17.99036141 -275.65784442 13.48953629 -270 9 C-268.98679687 8.18144531 -267.97359375 7.36289063 -266.9296875 6.51953125 C-259.04372836 0.22397652 -250.80076435 -5.0774032 -242 -10 C-241.23187988 -10.4345752 -240.46375977 -10.86915039 -239.67236328 -11.31689453 C-166.05301609 -52.62414236 -69.17351753 -49.92367 0 0 Z M-240.5 83.75 C-241.680598 85.1550779 -242.84577346 86.57317953 -244 88 C-244.77085937 88.94488281 -245.54171875 89.88976562 -246.3359375 90.86328125 C-271.01516842 121.67629533 -283.30638405 160.83797006 -279.53125 200.26953125 C-275.27466826 238.6707827 -257.40687016 276.36991001 -227 301 C-226.07832031 301.75925781 -225.15664062 302.51851563 -224.20703125 303.30078125 C-193.52799033 328.06461415 -154.03643414 340.29435965 -114.73046875 336.53125 C-85.25962174 333.26455778 -56.53849398 322.6217477 -34 303 C-33.18144531 302.29101562 -32.36289062 301.58203125 -31.51953125 300.8515625 C-28.97660131 298.60432209 -26.48165127 296.31465439 -24 294 C-23.18660156 293.25234375 -22.37320312 292.5046875 -21.53515625 291.734375 C6.52764412 264.95723215 21.07617526 226.19336244 22.28344727 187.88867188 C22.86349682 146.43706365 5.63719987 107.47638521 -23 78 C-25.56190267 75.52313975 -28.23003494 73.24076347 -31 71 C-32.41732422 69.84371094 -32.41732422 69.84371094 -33.86328125 68.6640625 C-94.94722506 19.73977516 -187.44231247 24.76959386 -240.5 83.75 Z " fill="#000000" transform="translate(385,70)"/>
<path d="M0 0 C24.0979129 18.78540345 41.76661165 45.58769966 46.05810547 76.23974609 C49.75385582 109.24202529 42.42180701 140.91306612 21.53076172 167.07568359 C1.82394144 190.81096989 -25.46686319 206.83809379 -56.46923828 210.07568359 C-90.99084359 211.87675568 -121.12695635 203.83652107 -147.53173828 180.76318359 C-169.1928671 160.64194545 -183.53138972 133.84473729 -185.69213867 103.99658203 C-186.95887168 69.51299071 -177.67620265 39.17954575 -153.85986328 13.54052734 C-113.91105865 -27.64851795 -46.55742646 -34.92121817 0 0 Z " fill="#000000" transform="translate(325.46923828125,161.92431640625)"/>
</svg>
